# xmcd CD database file
#
# Track frame offsets:
#	150
#	16960
#	39660
#	60390
#	80685
#	94427
#	105662
#	121027
#	153912
#	174647
#	194467
#	219172
#
# Disc length: 3209 seconds
#
# Revision: 0
# Processed by: cddbd v1.5.2PL0 Copyright (c) Steve Scherf et al.
# Submitted via: CDex 1.51
#
DISCID=970c870c
DTITLE=John Coltrane - Anthology
DYEAR=2007
DGENRE=Jazz
TTITLE0=Good Bait
TTITLE1=Birk's Works
TTITLE2=Thru for the Night
TTITLE3=Castle Rock
TTITLE4=Don't blame me
TTITLE5=I've got a mind to ramble Blues
TTITLE6=Don't cry Baby Blues
TTITLE7=In a Mellotone
TTITLE8=Globetrotter (Burgundy Walk)
TTITLE9=Tune up
TTITLE10=Walkin'
TTITLE11=Four
EXTD=YEAR: 2007
EXTT0=
EXTT1=
EXTT2=
EXTT3=
EXTT4=
EXTT5=
EXTT6=
EXTT7=
EXTT8=
EXTT9=
EXTT10=
EXTT11=
PLAYORDER=
